# xmcd
#
# Track frame offsets: 
#        150
#        21611
#        41521
#        65560
#        82058
#        98509
#        123200
#        141553
#        157990
#        181622
#        197204
#        222074
#        242025
#
# Disc length: 3737 seconds
#
# Revision: 0
# Processed by: cddbd v1.5.2PL0 Copyright (c) Steve Scherf et al.
# Submitted via: ExactAudioCopy v1.0b3
#
DISCID=b30e970d
DTITLE=King of the World - Can't Go Home
DYEAR=2013
DGENRE=Blues
TTITLE0=Bluesified
TTITLE1=Evil Thing
TTITLE2=Help Me Find The Way
TTITLE3=Gone Gone Gone
TTITLE4=Mr Big Shot
TTITLE5=Learn How To Cry
TTITLE6=Wrong Side Of Life
TTITLE7=Better Leave While You Can
TTITLE8=Broke and Lonely
TTITLE9=She's A Burglar
TTITLE10=Let's Go Get Stoned
TTITLE11=Number One
TTITLE12=Can't Go Home
EXTD=
EXTT0=
EXTT1=
EXTT2=
EXTT3=
EXTT4=
EXTT5=
EXTT6=
EXTT7=
EXTT8=
EXTT9=
EXTT10=
EXTT11=
EXTT12=
PLAYORDER=
